# xmcd CD database file
#
# Track frame offsets:
#	150
#	20102
#	25642
#	43605
#	59119
#	82023
#	102539
#	117324
#	130997
#	142718
#	166765
#	210821
#	255950
#	279093
#	303149
#
# Disc length: 4643 seconds
#
# Revision: 0
# Processed by: cddbd v1.5.2PL0 Copyright (c) Steve Scherf et al.
# Submitted via: CDex 1.51
#
DISCID=bf12210f
DTITLE=Molene and - Didier Squiban
DYEAR=1997
DGENRE=Jazz
TTITLE0=Didier Squiban - Ar Baradoz
TTITLE1=Didier Squiban - An Alac'h
TTITLE2=Didier Squiban - Suite d'An Dro du pays vanneta
TTITLE3=Didier Squiban - Ledenez
TTITLE4=Didier Squiban - Kost ar C'hoat
TTITLE5=Didier Squiban - Tri Men
TTITLE6=Didier Squiban - Iroise
TTITLE7=Didier Squiban - Suite de gavottes des montagne
TTITLE8=Didier Squiban - An Skoliater
TTITLE9=Thee Silver Mountain Reveries - More Action! Less Tears!
TTITLE10=Thee Silver Mountain Reveries - Microphones In The Trees
TTITLE11=Thee Silver Mountain Reveries - Pretty Little Lightning Paw
TTITLE12=Thee Silver Mountain Reveries - There's A River In The Valley
TTITLE13=Silver Mt. Zion - More Action! Less Tears!
TTITLE14=Silver Mt. Zion - Pretty Little Lightning Paw
EXTD=YEAR: 1997
EXTT0=
EXTT1=
EXTT2=
EXTT3=
EXTT4=
EXTT5=
EXTT6=
EXTT7=
EXTT8=
EXTT9=
EXTT10=
EXTT11=
EXTT12=
EXTT13=
EXTT14=
PLAYORDER=
